<mxfile host="app.diagrams.net" modified="2024-04-07T06:55:49.212Z" agent="Mozilla/5.0 (Windows NT 10.0; Win64; x64; rv:124.0) Gecko/20100101 Firefox/124.0" version="24.2.2" etag="QpmU5Wv0SIMQCVILCevZ" type="github">
  <diagram name="第 1 页" id="P3b3gJ3zqjS2W7yC-2tV">
    <mxGraphModel>
      <root>
        <mxCell id="0" />
        <mxCell id="1" parent="0" />
      </root>
    </mxGraphModel>
  </diagram>
</mxfile>
